<svg width="502" height="502" viewBox="0 0 502 502" fill="none" xmlns="http://www.w3.org/2000/svg">
<path d="M392.558 484C378.958 484 366.958 481.8 356.558 477.4C346.158 473.4 336.358 466.6 327.158 457C317.958 447 308.158 433.6 297.758 416.8C292.158 406.4 286.158 395.8 279.758 385C273.758 374.2 267.358 362.6 260.558 350.2C254.158 337.8 247.158 324.8 239.558 311.2C232.358 297.6 224.358 283.2 215.558 268H198.158V462.4L231.158 469V475H46.9578V469L79.3578 462.4V62.8L46.9578 56.2V50.2H198.158V259.6C202.158 259.6 205.958 259.4 209.558 259C213.558 258.6 217.358 258 220.958 257.2C230.558 255.2 239.558 250.8 247.958 244C256.758 237.2 264.958 229 272.558 219.4C280.558 209.4 287.758 198.8 294.158 187.6C299.358 178 303.758 168.2 307.358 158.2C311.358 148.2 314.358 138.4 316.358 128.8C318.358 119.2 319.358 110.4 319.358 102.4C319.358 88.8 315.558 77.8 307.958 69.4C300.358 60.6 288.358 56.2 271.958 56.2V50.2H459.758V56.2L427.958 62.8C427.958 78.4 425.158 94 419.558 109.6C413.958 124.8 406.358 139.4 396.758 153.4C387.558 167.4 376.958 180.2 364.958 191.8C350.158 206.2 334.358 218.8 317.558 229.6C300.758 240 284.758 248.2 269.558 254.2C254.758 259.8 242.558 263 232.958 263.8V266.8C254.558 267.2 273.558 269.2 289.958 272.8C306.358 276 320.558 281.4 332.558 289C344.958 296.2 355.758 306 364.958 318.4C374.558 330.4 383.158 345.2 390.758 362.8C399.158 382.4 406.758 398.6 413.558 411.4C420.358 423.8 426.958 433.6 433.358 440.8C439.758 447.6 446.358 453 453.158 457C456.758 459 460.558 459.6 464.558 458.8V464.8C456.558 470.8 448.358 475 439.958 477.4C431.558 480.2 423.358 482 415.358 482.8C407.358 483.6 399.758 484 392.558 484Z" fill="url(#paint0_radial_68_2)" style="mix-blend-mode:difference"/>
<path d="M392.558 484C378.958 484 366.958 481.8 356.558 477.4C346.158 473.4 336.358 466.6 327.158 457C317.958 447 308.158 433.6 297.758 416.8C292.158 406.4 286.158 395.8 279.758 385C273.758 374.2 267.358 362.6 260.558 350.2C254.158 337.8 247.158 324.8 239.558 311.2C232.358 297.6 224.358 283.2 215.558 268H198.158V462.4L231.158 469V475H46.9578V469L79.3578 462.4V62.8L46.9578 56.2V50.2H198.158V259.6C202.158 259.6 205.958 259.4 209.558 259C213.558 258.6 217.358 258 220.958 257.2C230.558 255.2 239.558 250.8 247.958 244C256.758 237.2 264.958 229 272.558 219.4C280.558 209.4 287.758 198.8 294.158 187.6C299.358 178 303.758 168.2 307.358 158.2C311.358 148.2 314.358 138.4 316.358 128.8C318.358 119.2 319.358 110.4 319.358 102.4C319.358 88.8 315.558 77.8 307.958 69.4C300.358 60.6 288.358 56.2 271.958 56.2V50.2H459.758V56.2L427.958 62.8C427.958 78.4 425.158 94 419.558 109.6C413.958 124.8 406.358 139.4 396.758 153.4C387.558 167.4 376.958 180.2 364.958 191.8C350.158 206.2 334.358 218.8 317.558 229.6C300.758 240 284.758 248.2 269.558 254.2C254.758 259.8 242.558 263 232.958 263.8V266.8C254.558 267.2 273.558 269.2 289.958 272.8C306.358 276 320.558 281.4 332.558 289C344.958 296.2 355.758 306 364.958 318.4C374.558 330.4 383.158 345.2 390.758 362.8C399.158 382.4 406.758 398.6 413.558 411.4C420.358 423.8 426.958 433.6 433.358 440.8C439.758 447.6 446.358 453 453.158 457C456.758 459 460.558 459.6 464.558 458.8V464.8C456.558 470.8 448.358 475 439.958 477.4C431.558 480.2 423.358 482 415.358 482.8C407.358 483.6 399.758 484 392.558 484Z" fill="#E7694B"/>
<defs>
<radialGradient id="paint0_radial_68_2" cx="0" cy="0" r="1" gradientUnits="userSpaceOnUse" gradientTransform="translate(251 251.5) rotate(90) scale(403.5 269)">
<stop offset="0.0913462" stop-color="white"/>
<stop offset="0.538462" stop-color="#E7694B"/>
</radialGradient>
</defs>
</svg>
