<?xml version="1.0" encoding="UTF-8"?>
<svg version="1.1" xmlns="http://www.w3.org/2000/svg" width="2008" height="2008">
<path d="M0 0 C155.76 0 311.52 0 472 0 C472 183.81 472 367.62 472 557 C514.09805132 551.38692649 549.54119788 535.45520783 579.37109375 504.62890625 C581 503 581 503 583.5625 501 C586.3530349 498.71033034 588.53576764 496.18138208 590.87109375 493.4375 C592.89481913 491.12042728 594.99224359 488.88931344 597.11279297 486.66113281 C604.74218085 478.59570952 611.41292928 469.92517705 618 461 C618.80655029 459.91477051 618.80655029 459.91477051 619.62939453 458.80761719 C666.81192322 395.18849374 702.29920333 320.25071275 720 243 C720.3702832 241.40454346 720.3702832 241.40454346 720.74804688 239.77685547 C723.68200917 226.9052134 725.65767621 213.96936939 727.25 200.875 C727.33326538 200.19125305 727.41653076 199.5075061 727.50231934 198.80303955 C733.28012647 150.65609919 731.66952147 99.28917741 700.73779297 59.37109375 C682.14955119 35.93699589 657.68200457 22.8534356 628 19 C618.68457515 18.07228577 609.34629172 17.50845968 600 17 C600 11.39 600 5.78 600 0 C787.11 0 974.22 0 1167 0 C1167 5.61 1167 11.22 1167 17 C1157.30859343 18.96088011 1147.61638482 20.91766585 1137.92270374 22.86727142 C1133.42150007 23.77272908 1128.92067146 24.67997088 1124.4206543 25.59130859 C1120.07729128 26.47085233 1115.7330036 27.34568509 1111.38803673 28.2172699 C1109.73112938 28.55049799 1108.07456128 28.88541757 1106.4183445 29.22206116 C1104.09723799 29.69354894 1101.77499439 30.15898969 1099.45239258 30.62304688 C1098.76906357 30.76330795 1098.08573456 30.90356903 1097.38169861 31.04808044 C1093.86906068 31.74303877 1090.58144491 32.15151595 1087 32 C1087.02320313 33.00933594 1087.04640625 34.01867187 1087.0703125 35.05859375 C1087.93753227 90.26071813 1073.44465437 143.00609104 1051 193 C1050.5978125 193.89831543 1050.195625 194.79663086 1049.78125 195.72216797 C1031.30620743 236.6575379 1005.9124145 274.7196556 977 309 C976.154375 310.00675781 975.30875 311.01351563 974.4375 312.05078125 C972.12084326 314.8027466 969.79164191 317.54382027 967.45898438 320.28222656 C965.96156992 322.04524666 964.47262076 323.81517404 962.984375 325.5859375 C957.63161485 331.92775733 952.1632815 337.98171331 946.21875 343.78515625 C944.2701087 345.73036684 942.46725035 347.71431392 940.6875 349.8125 C937.47268087 353.56058296 934.04632346 357.06672688 930.5625 360.5625 C929.7739563 361.35781128 929.7739563 361.35781128 928.96948242 362.16918945 C925.46264512 365.66310824 921.81085772 368.93746484 918.06860352 372.17651367 C914.51437862 375.3095841 911.11359371 378.6033129 907.6875 381.875 C902.13727357 387.14078486 896.53454378 392.16696599 890.54296875 396.92578125 C887.74373247 399.20902927 885.09325594 401.61416712 882.4375 404.0625 C877.46324793 408.62455984 872.32446791 412.85562524 867 417 C865.67946728 418.0387826 864.35917489 419.07787078 863.0390625 420.1171875 C858.3819385 423.77427729 853.69740398 427.39483476 849 431 C848.29327148 431.54366211 847.58654297 432.08732422 846.85839844 432.64746094 C807.35578978 462.86186841 764.01293323 488.0153992 720 511 C718.89285645 511.57959473 717.78571289 512.15918945 716.64501953 512.75634766 C661.8610279 541.26138188 592.79659976 573.02945246 530 572 C530 574.31 530 576.62 530 579 C531.40463501 578.98428955 531.40463501 578.98428955 532.83764648 578.96826172 C625.9025437 578.02973717 722.6174149 586.3915259 861.3894043 664.59423828 C862.51198624 665.57405135 863.64164034 666.54579548 864.77661133 667.51123047 C870.25756564 672.21197528 875.40425095 677.21807345 880.50854492 682.32324219 C881.92668284 683.73919947 883.35296665 685.14698289 884.77929688 686.5546875 C890.96174299 692.72424457 896.57711658 699.1583272 902 706 C903.00120557 707.21966987 904.0047446 708.43743213 905.01171875 709.65234375 C922.82319484 731.41214449 937.71096088 755.25998425 951 780 C951.44633789 780.82032715 951.89267578 781.6406543 952.35253906 782.48583984 C965.1946725 806.13981807 975.84445728 830.81530878 986.36828613 855.56390381 C1010.29900762 911.79499693 1035.93901926 968.75910621 1074 1017 C1074.95132812 1018.21840576 1074.95132812 1018.21840576 1075.921875 1019.46142578 C1081.46484253 1026.41644675 1087.45162676 1032.76191854 1093.75585938 1039.01660156 C1095.37346287 1040.62347307 1096.98006913 1042.24078494 1098.5859375 1043.859375 C1105.06535114 1050.34794769 1111.76075143 1056.35232887 1119 1062 C1120.03326416 1062.81428467 1120.03326416 1062.81428467 1121.08740234 1063.64501953 C1131.73301868 1071.93108322 1142.48223919 1078.90725 1156.20703125 1080.546875 C1157.45871094 1080.69640625 1158.71039062 1080.8459375 1160 1081 C1162.18302606 1095.69904213 1162.18302606 1095.69904213 1158.85009766 1100.73876953 C1155.49828431 1104.08397832 1151.4482077 1106.3871646 1147.3359375 1108.68164062 C1144.90926147 1110.05121112 1142.56730963 1111.5164231 1140.21875 1113.015625 C1108.0118687 1133.35092976 1071.2825274 1144.25976974 1034 1151 C1033.20867676 1151.14775879 1032.41735352 1151.29551758 1031.60205078 1151.44775391 C1025.42877482 1152.57004783 1019.23853308 1153.34002458 1013 1154 C1011.06181396 1154.20520264 1011.06181396 1154.20520264 1009.08447266 1154.41455078 C985.58668181 1156.80413945 962.07174831 1157.31746826 938.47151566 1157.36880875 C936.29077867 1157.37488635 934.11012205 1157.38612181 931.92941284 1157.39852905 C869.11880888 1157.70997976 802.71734589 1146.03751314 753 1105 C752.17387207 1104.32614258 752.17387207 1104.32614258 751.33105469 1103.63867188 C738.91795692 1093.46771199 727.34998223 1082.27149792 717 1070 C716.03045145 1068.89164708 715.05888453 1067.78505833 714.0859375 1066.6796875 C706.75852278 1058.33782538 699.74030717 1049.82215381 693 1041 C692.53271484 1040.3910791 692.06542969 1039.7821582 691.58398438 1039.15478516 C688.00181646 1034.47591157 684.4839466 1029.75238931 681 1025 C680.46004395 1024.26604004 679.92008789 1023.53208008 679.36376953 1022.77587891 C663.97197357 1001.72169961 651.22459757 979.00082314 639 956 C638.5373877 955.13648926 638.07477539 954.27297852 637.59814453 953.38330078 C621.99496789 924.21873772 608.03594007 894.27060248 594.84973145 863.94824219 C593.6151078 861.11752915 592.36446397 858.29390634 591.1171875 855.46875 C582.59252621 835.95374609 575.37633604 815.92429734 568.07080078 795.92987061 C566.99798959 792.99449921 565.92298928 790.05993666 564.84765625 787.12548828 C559.83635627 773.43909577 554.88726816 759.73117243 550 746 C549.69682861 745.14931946 549.39365723 744.29863892 549.08129883 743.42218018 C533.54265543 699.75756232 520.55924419 655.2260313 507.41731262 610.79454041 C506.81398877 608.75503272 506.21003629 606.71571182 505.6060791 604.6763916 C504.48985596 600.90523924 503.3791454 597.13247762 502.26953125 593.359375 C501.9361525 592.23229126 501.60277374 591.10520752 501.2592926 589.94396973 C500.80960365 588.40887756 500.80960365 588.40887756 500.35083008 586.84277344 C500.0883699 585.95056091 499.82590973 585.05834839 499.55549622 584.13909912 C499 582 499 582 499 580 C490.09 580 481.18 580 472 580 C472 751.93 472 923.86 472 1101 C475.3 1101.33 478.6 1101.66 482 1102 C484.52733225 1102.42673022 487.04858629 1102.89162378 489.56103516 1103.39868164 C490.24524536 1103.53537766 490.92945557 1103.67207367 491.63439941 1103.81291199 C493.85356592 1104.25743152 496.07129614 1104.70870816 498.2890625 1105.16015625 C499.84410246 1105.47303302 501.39922894 1105.78548005 502.95443726 1106.09751892 C507.01582427 1106.91358528 511.07602167 1107.73542345 515.13598633 1108.55853271 C519.29176802 1109.3999817 523.44866584 1110.23587896 527.60546875 1111.07226562 C535.73807378 1112.70945996 543.86931925 1114.35327584 552 1116 C552 1121.61 552 1127.22 552 1133 C369.84 1133 187.68 1133 0 1133 C0 1127.39 0 1121.78 0 1116 C9.69140657 1114.03911989 19.38361518 1112.08233415 29.07729626 1110.13272858 C33.57849993 1109.22727092 38.07932854 1108.32002912 42.5793457 1107.40869141 C46.92270872 1106.52914767 51.2669964 1105.65431491 55.61196327 1104.7827301 C57.26887062 1104.44950201 58.92543872 1104.11458243 60.5816555 1103.77793884 C62.90276201 1103.30645106 65.22500561 1102.84101031 67.54760742 1102.37695312 C68.23093643 1102.23669205 68.91426544 1102.09643097 69.61830139 1101.95191956 C73.2241434 1101.23852126 76.27386467 1101 80 1101 C79.67 748.56 79.34 396.12 79 33 C39.895 25.08 39.895 25.08 0 17 C0 11.39 0 5.78 0 0 Z " fill="#FFFFFF" transform="translate(423,467)"/>
</svg>
