<svg width="502" height="502" viewBox="0 0 502 502" fill="none" xmlns="http://www.w3.org/2000/svg">
<path d="M392.558 483C378.958 483 366.958 480.8 356.558 476.4C346.158 472.4 336.358 465.6 327.158 456C317.958 446 308.158 432.6 297.758 415.8C292.158 405.4 286.158 394.8 279.758 384C273.758 373.2 267.358 361.6 260.558 349.2C254.158 336.8 247.158 323.8 239.558 310.2C232.358 296.6 224.358 282.2 215.558 267H198.158V461.4L231.158 468V474H46.9578V468L79.3578 461.4V61.8L46.9578 55.2V49.2H198.158V258.6C202.158 258.6 205.958 258.4 209.558 258C213.558 257.6 217.358 257 220.958 256.2C230.558 254.2 239.558 249.8 247.958 243C256.758 236.2 264.958 228 272.558 218.4C280.558 208.4 287.758 197.8 294.158 186.6C299.358 177 303.758 167.2 307.358 157.2C311.358 147.2 314.358 137.4 316.358 127.8C318.358 118.2 319.358 109.4 319.358 101.4C319.358 87.8 315.558 76.8 307.958 68.4C300.358 59.6 288.358 55.2 271.958 55.2V49.2H459.758V55.2L427.958 61.8C427.958 77.4 425.158 93 419.558 108.6C413.958 123.8 406.358 138.4 396.758 152.4C387.558 166.4 376.958 179.2 364.958 190.8C350.158 205.2 334.358 217.8 317.558 228.6C300.758 239 284.758 247.2 269.558 253.2C254.758 258.8 242.558 262 232.958 262.8V265.8C254.558 266.2 273.558 268.2 289.958 271.8C306.358 275 320.558 280.4 332.558 288C344.958 295.2 355.758 305 364.958 317.4C374.558 329.4 383.158 344.2 390.758 361.8C399.158 381.4 406.758 397.6 413.558 410.4C420.358 422.8 426.958 432.6 433.358 439.8C439.758 446.6 446.358 452 453.158 456C456.758 458 460.558 458.6 464.558 457.8V463.8C456.558 469.8 448.358 474 439.958 476.4C431.558 479.2 423.358 481 415.358 481.8C407.358 482.6 399.758 483 392.558 483Z" fill="url(#paint0_radial_32_2)" style="mix-blend-mode:difference"/>
<defs>
<radialGradient id="paint0_radial_32_2" cx="0" cy="0" r="1" gradientUnits="userSpaceOnUse" gradientTransform="translate(251 250.5) rotate(90) scale(403.5 269)">
<stop offset="0.0913462" stop-color="white"/>
<stop offset="0.538462" stop-color="#E7694B"/>
</radialGradient>
</defs>
</svg>
