<svg width="502" height="502" viewBox="0 0 502 502" fill="none" xmlns="http://www.w3.org/2000/svg">
<path d="M345.372 406C336.305 406 328.305 404.533 321.372 401.6C314.439 398.933 307.905 394.4 301.772 388C295.639 381.333 289.105 372.4 282.172 361.2C278.439 354.267 274.439 347.2 270.172 340C266.172 332.8 261.905 325.067 257.372 316.8C253.105 308.533 248.439 299.867 243.372 290.8C238.572 281.733 233.239 272.133 227.372 262H215.772V391.6L237.772 396V400H114.972V396L136.572 391.6V125.2L114.972 120.8V116.8H215.772V256.4C218.439 256.4 220.972 256.267 223.372 256C226.039 255.733 228.572 255.333 230.972 254.8C237.372 253.467 243.372 250.533 248.972 246C254.839 241.467 260.305 236 265.372 229.6C270.705 222.933 275.505 215.867 279.772 208.4C283.239 202 286.172 195.467 288.572 188.8C291.239 182.133 293.239 175.6 294.572 169.2C295.905 162.8 296.572 156.933 296.572 151.6C296.572 142.533 294.039 135.2 288.972 129.6C283.905 123.733 275.905 120.8 264.972 120.8V116.8H390.172V120.8L368.972 125.2C368.972 135.6 367.105 146 363.372 156.4C359.639 166.533 354.572 176.267 348.172 185.6C342.039 194.933 334.972 203.467 326.972 211.2C317.105 220.8 306.572 229.2 295.372 236.4C284.172 243.333 273.505 248.8 263.372 252.8C253.505 256.533 245.372 258.667 238.972 259.2V261.2C253.372 261.467 266.039 262.8 276.972 265.2C287.905 267.333 297.372 270.933 305.372 276C313.639 280.8 320.839 287.333 326.972 295.6C333.372 303.6 339.105 313.467 344.172 325.2C349.772 338.267 354.839 349.067 359.372 357.6C363.905 365.867 368.305 372.4 372.572 377.2C376.839 381.733 381.239 385.333 385.772 388C388.172 389.333 390.705 389.733 393.372 389.2V393.2C388.039 397.2 382.572 400 376.972 401.6C371.372 403.467 365.905 404.667 360.572 405.2C355.239 405.733 350.172 406 345.372 406Z" fill="url(#paint0_radial_32_2)" style="mix-blend-mode:difference"/>
<defs>
<radialGradient id="paint0_radial_32_2" cx="0" cy="0" r="1" gradientUnits="userSpaceOnUse" gradientTransform="translate(251 251) rotate(90) scale(269 269)">
<stop offset="0.0913462" stop-color="white"/>
<stop offset="0.538462" stop-color="#E7694B"/>
</radialGradient>
</defs>
</svg>
