<?xml version="1.0" standalone="no"?>
<svg viewBox="0 0 200 200" xmlns="http://www.w3.org/2000/svg">
  <path fill="#E7694B" d="M44.7,-74.4C54.9,-62.9,58,-45.4,65.6,-29.7C73.1,-14,84.9,0,82.4,11.3C79.9,22.7,63.2,31.4,50.2,40C37.3,48.6,28.3,57.1,16.6,63.9C4.9,70.6,-9.4,75.7,-22.6,73.4C-35.8,71.2,-48,61.6,-55,49.8C-62.1,37.9,-64.1,23.7,-64.4,10.3C-64.7,-3.1,-63.4,-15.7,-57.5,-25.3C-51.6,-34.8,-41.1,-41.3,-30.8,-52.7C-20.5,-64.2,-10.2,-80.6,3.5,-86C17.2,-91.5,34.5,-85.9,44.7,-74.4Z" transform="translate(100 100)" />
</svg>
