<svg width="592" height="541" viewBox="0 0 592 541" fill="none" xmlns="http://www.w3.org/2000/svg">
<path d="M327.9 310.6L414.1 364.7L405.1 278.6L327.9 310.6Z" fill="#7D3D38" stroke="#7D3D38" stroke-linejoin="bevel"/>
<path d="M414.1 364.7L470.4 268.6L405.1 278.6L414.1 364.7Z" fill="#D25F48" stroke="#D25F48" stroke-linejoin="bevel"/>
<path d="M327.9 310.6L288.9 391.7L414.1 364.7L327.9 310.6Z" fill="#A74D41" stroke="#A74D41" stroke-linejoin="bevel"/>
<path d="M414.1 364.7L483.4 271.4L470.4 268.6L414.1 364.7Z" fill="#402726" stroke="#402726" stroke-linejoin="bevel"/>
<path d="M415.1 199.3L394.1 205.4L405.1 278.6L415.1 199.3Z" fill="#D25F48" stroke="#D25F48" stroke-linejoin="bevel"/>
<path d="M405.1 278.6L337.9 201.4L327.9 310.6L405.1 278.6Z" fill="#92453D" stroke="#92453D" stroke-linejoin="bevel"/>
<path d="M415.1 199.3L405.1 278.6L470.4 268.6L415.1 199.3Z" fill="#A74D41" stroke="#A74D41" stroke-linejoin="bevel"/>
<path d="M413.1 455.9L474.4 404.7L414.1 364.7L413.1 455.9Z" fill="#1A1818" stroke="#1A1818" stroke-linejoin="bevel"/>
<path d="M414.1 364.7L474.4 404.7L483.4 271.4L414.1 364.7Z" fill="#BC5645" stroke="#BC5645" stroke-linejoin="bevel"/>
<path d="M394.1 205.4L337.9 201.4L405.1 278.6L394.1 205.4Z" fill="#683533" stroke="#683533" stroke-linejoin="bevel"/>
<path d="M327.9 310.6L242.6 334.6L288.9 391.7L327.9 310.6Z" fill="#92453D" stroke="#92453D" stroke-linejoin="bevel"/>
<path d="M452.4 161.3L415.1 199.3L470.4 268.6L452.4 161.3Z" fill="#402726" stroke="#402726" stroke-linejoin="bevel"/>
<path d="M394.1 205.4L359.1 94.1001L337.9 201.4L394.1 205.4Z" fill="#2D1F1F" stroke="#2D1F1F" stroke-linejoin="bevel"/>
<path d="M310.9 461.9L413.1 455.9L414.1 364.7L310.9 461.9Z" fill="#1A1818" stroke="#1A1818" stroke-linejoin="bevel"/>
<path d="M197.6 244.4L242.6 334.6L327.9 310.6L197.6 244.4Z" fill="#683533" stroke="#683533" stroke-linejoin="bevel"/>
<path d="M238.6 451.9L310.9 461.9L288.9 391.7L238.6 451.9Z" fill="#BC5645" stroke="#BC5645" stroke-linejoin="bevel"/>
<path d="M288.9 391.7L310.9 461.9L414.1 364.7L288.9 391.7Z" fill="#402726" stroke="#402726" stroke-linejoin="bevel"/>
<path d="M242.6 334.6L238.6 414.7L288.9 391.7L242.6 334.6Z" fill="#E7694B" stroke="#E7694B" stroke-linejoin="bevel"/>
<path d="M474.4 404.7L543.7 372.7L483.4 271.4L474.4 404.7Z" fill="#BC5645" stroke="#BC5645" stroke-linejoin="bevel"/>
<path d="M483.4 271.4L452.4 161.3L470.4 268.6L483.4 271.4Z" fill="#A74D41" stroke="#A74D41" stroke-linejoin="bevel"/>
<path d="M415.1 199.3L359.1 94.1001L394.1 205.4L415.1 199.3Z" fill="#683533" stroke="#683533" stroke-linejoin="bevel"/>
<path d="M553.7 141.3L452.4 161.3L483.4 271.4L553.7 141.3Z" fill="#402726" stroke="#402726" stroke-linejoin="bevel"/>
<path d="M238.6 414.7V451.9L288.9 391.7L238.6 414.7Z" fill="#D25F48" stroke="#D25F48" stroke-linejoin="bevel"/>
<path d="M279.9 142.3L197.6 244.4L337.9 201.4L279.9 142.3Z" fill="#BC5645" stroke="#BC5645" stroke-linejoin="bevel"/>
<path d="M337.9 201.4L197.6 244.4L327.9 310.6L337.9 201.4Z" fill="#D25F48" stroke="#D25F48" stroke-linejoin="bevel"/>
<path d="M242.6 334.6L160.3 341.7L238.6 414.7L242.6 334.6Z" fill="#A74D41" stroke="#A74D41" stroke-linejoin="bevel"/>
<path d="M238.6 414.7L107.3 456.9L238.6 451.9V414.7Z" fill="#D25F48" stroke="#D25F48" stroke-linejoin="bevel"/>
<path d="M359.1 94.1001L279.9 142.3L337.9 201.4L359.1 94.1001Z" fill="#A74D41" stroke="#A74D41" stroke-linejoin="bevel"/>
<path d="M153.3 306.6L160.3 341.7L242.6 334.6L153.3 306.6Z" fill="#1A1818" stroke="#1A1818" stroke-linejoin="bevel"/>
<path d="M197.6 244.4L153.3 306.6L242.6 334.6L197.6 244.4Z" fill="#A74D41" stroke="#A74D41" stroke-linejoin="bevel"/>
<path d="M452.4 161.3L359.1 94.1001L415.1 199.3L452.4 161.3Z" fill="#402726" stroke="#402726" stroke-linejoin="bevel"/>
<path d="M452.4 161.3L469.4 103.1L359.1 94.1001L452.4 161.3Z" fill="#92453D" stroke="#92453D" stroke-linejoin="bevel"/>
<path d="M553.7 141.3L469.4 103.1L452.4 161.3L553.7 141.3Z" fill="#E7694B" stroke="#E7694B" stroke-linejoin="bevel"/>
<path d="M259.9 56.1001L207.6 111.3L279.9 142.3L259.9 56.1001Z" fill="#2D1F1F" stroke="#2D1F1F" stroke-linejoin="bevel"/>
<path d="M279.9 142.3L207.6 111.3L197.6 244.4L279.9 142.3Z" fill="#402726" stroke="#402726" stroke-linejoin="bevel"/>
<path d="M197.6 244.4L96.3 209.4L153.3 306.6L197.6 244.4Z" fill="#E7694B" stroke="#E7694B" stroke-linejoin="bevel"/>
<path d="M207.6 111.3L134.3 186.3L197.6 244.4L207.6 111.3Z" fill="#E7694B" stroke="#E7694B" stroke-linejoin="bevel"/>
<path d="M107.3 456.9L238.6 414.7L160.3 341.7L107.3 456.9Z" fill="#402726" stroke="#402726" stroke-linejoin="bevel"/>
<path d="M107.3 456.9L160.3 341.7L1 393.7L107.3 456.9Z" fill="#A74D41" stroke="#A74D41" stroke-linejoin="bevel"/>
<path d="M359.1 94.1001L259.9 56.1001L279.9 142.3L359.1 94.1001Z" fill="#7D3D38" stroke="#7D3D38" stroke-linejoin="bevel"/>
<path d="M207.6 111.3L80.3 67.1001L134.3 186.3L207.6 111.3Z" fill="#542E2D" stroke="#542E2D" stroke-linejoin="bevel"/>
<path d="M63 265.6L160.3 341.7L153.3 306.6L63 265.6Z" fill="#E7694B" stroke="#E7694B" stroke-linejoin="bevel"/>
<path d="M259.9 56.1001L212.6 72.1001L207.6 111.3L259.9 56.1001Z" fill="#E7694B" stroke="#E7694B" stroke-linejoin="bevel"/>
<path d="M134.3 186.3L96.3 209.4L197.6 244.4L134.3 186.3Z" fill="#402726" stroke="#402726" stroke-linejoin="bevel"/>
<path d="M96.3 209.4L63 265.6L153.3 306.6L96.3 209.4Z" fill="#92453D" stroke="#92453D" stroke-linejoin="bevel"/>
<path d="M259.9 56.1L164.6 1L212.6 72.1L259.9 56.1Z" fill="#92453D" stroke="#92453D" stroke-linejoin="bevel"/>
<path d="M80.3 67.1001L207.6 111.3L212.6 72.1001L80.3 67.1001Z" fill="#7D3D38" stroke="#7D3D38" stroke-linejoin="bevel"/>
<path d="M63 265.6L1 393.7L160.3 341.7L63 265.6Z" fill="#A74D41" stroke="#A74D41" stroke-linejoin="bevel"/>
<path d="M164.6 1L80.3 67.1L212.6 72.1L164.6 1Z" fill="#402726" stroke="#402726" stroke-linejoin="bevel"/>
<path d="M164.6 1H97.3L80.3 67.1L164.6 1Z" fill="#1A1818" stroke="#1A1818" stroke-linejoin="bevel"/>
</svg>
