<svg id="visual" viewBox="0 0 960 540" width="960" height="540" xmlns="http://www.w3.org/2000/svg" xmlns:xlink="http://www.w3.org/1999/xlink" version="1.1"><g stroke-width="1" stroke-linejoin="bevel"><path d="M521.3 278L408.7 247L504.3 320Z" fill="#b74d6f" stroke="#b74d6f"></path><path d="M521.3 278L450.7 204L408.7 247Z" fill="#a04a74" stroke="#a04a74"></path><path d="M408.7 247L409.7 366L504.3 320Z" fill="#33374f" stroke="#33374f"></path><path d="M314 174L317 259L408.7 247Z" fill="#cb5366" stroke="#cb5366"></path><path d="M408.7 247L309 342L409.7 366Z" fill="#28303f" stroke="#28303f"></path><path d="M521.3 278L517.3 142L450.7 204Z" fill="#433d5d" stroke="#433d5d"></path><path d="M450.7 204L314 174L408.7 247Z" fill="#b74d6f" stroke="#b74d6f"></path><path d="M656 356L613 236L521.3 278Z" fill="#b74d6f" stroke="#b74d6f"></path><path d="M521.3 278L613 236L517.3 142Z" fill="#874874" stroke="#874874"></path><path d="M317 259L309 342L408.7 247Z" fill="#cb5366" stroke="#cb5366"></path><path d="M517.3 142L421.7 114L450.7 204Z" fill="#874874" stroke="#874874"></path><path d="M421.7 114L314 174L450.7 204Z" fill="#574268" stroke="#574268"></path><path d="M317 259L236.3 289L309 342Z" fill="#6f4670" stroke="#6f4670"></path><path d="M412.7 457L530.3 448L409.7 366Z" fill="#e7694b" stroke="#e7694b"></path><path d="M409.7 366L530.3 448L504.3 320Z" fill="#574268" stroke="#574268"></path><path d="M504.3 320L656 356L521.3 278Z" fill="#e7694b" stroke="#e7694b"></path><path d="M334 462L412.7 457L409.7 366Z" fill="#cb5366" stroke="#cb5366"></path><path d="M613 236L547.3 106L517.3 142Z" fill="#28303f" stroke="#28303f"></path><path d="M517.3 142L547.3 106L421.7 114Z" fill="#cb5366" stroke="#cb5366"></path><path d="M421.7 114L320 122L314 174Z" fill="#cb5366" stroke="#cb5366"></path><path d="M530.3 448L656 356L504.3 320Z" fill="#b74d6f" stroke="#b74d6f"></path><path d="M613 236L619 94L547.3 106Z" fill="#cb5366" stroke="#cb5366"></path><path d="M656 356L661 209L613 236Z" fill="#574268" stroke="#574268"></path><path d="M309 342L334 462L409.7 366Z" fill="#574268" stroke="#574268"></path><path d="M314 174L236.3 289L317 259Z" fill="#28303f" stroke="#28303f"></path><path d="M309 342L208.3 489L334 462Z" fill="#874874" stroke="#874874"></path><path d="M177.3 189L236.3 289L314 174Z" fill="#b74d6f" stroke="#b74d6f"></path><path d="M661 209L619 94L613 236Z" fill="#433d5d" stroke="#433d5d"></path><path d="M531.3 0L401.7 0L421.7 114Z" fill="#33374f" stroke="#33374f"></path><path d="M421.7 114L354 0L320 122Z" fill="#cb5366" stroke="#cb5366"></path><path d="M334 462L388.7 540L412.7 457Z" fill="#db5c5a" stroke="#db5c5a"></path><path d="M412.7 457L388.7 540L530.3 448Z" fill="#28303f" stroke="#28303f"></path><path d="M96.7 300L187.3 344L236.3 289Z" fill="#6f4670" stroke="#6f4670"></path><path d="M236.3 289L187.3 344L309 342Z" fill="#a04a74" stroke="#a04a74"></path><path d="M334 462L355 540L388.7 540Z" fill="#b74d6f" stroke="#b74d6f"></path><path d="M388.7 540L565.3 540L530.3 448Z" fill="#6f4670" stroke="#6f4670"></path><path d="M530.3 448L670 472L656 356Z" fill="#874874" stroke="#874874"></path><path d="M237.3 540L355 540L334 462Z" fill="#e7694b" stroke="#e7694b"></path><path d="M531.3 0L421.7 114L547.3 106Z" fill="#a04a74" stroke="#a04a74"></path><path d="M627 540L670 472L530.3 448Z" fill="#574268" stroke="#574268"></path><path d="M779.7 275L746.7 176L661 209Z" fill="#874874" stroke="#874874"></path><path d="M619 94L531.3 0L547.3 106Z" fill="#b74d6f" stroke="#b74d6f"></path><path d="M195.3 115L314 174L320 122Z" fill="#6f4670" stroke="#6f4670"></path><path d="M195.3 115L177.3 189L314 174Z" fill="#574268" stroke="#574268"></path><path d="M401.7 0L354 0L421.7 114Z" fill="#cb5366" stroke="#cb5366"></path><path d="M661 209L746.7 176L619 94Z" fill="#574268" stroke="#574268"></path><path d="M619 94L666 0L531.3 0Z" fill="#874874" stroke="#874874"></path><path d="M779.7 275L661 209L656 356Z" fill="#db5c5a" stroke="#db5c5a"></path><path d="M565.3 540L627 540L530.3 448Z" fill="#e7694b" stroke="#e7694b"></path><path d="M234.3 0L195.3 115L320 122Z" fill="#874874" stroke="#874874"></path><path d="M730.7 456L656 356L670 472Z" fill="#28303f" stroke="#28303f"></path><path d="M730.7 456L766.7 346L656 356Z" fill="#b74d6f" stroke="#b74d6f"></path><path d="M766.7 346L779.7 275L656 356Z" fill="#b74d6f" stroke="#b74d6f"></path><path d="M752.7 540L730.7 456L670 472Z" fill="#db5c5a" stroke="#db5c5a"></path><path d="M187.3 344L208.3 489L309 342Z" fill="#874874" stroke="#874874"></path><path d="M96.7 300L138.7 354L187.3 344Z" fill="#874874" stroke="#874874"></path><path d="M187.3 344L138.7 354L208.3 489Z" fill="#28303f" stroke="#28303f"></path><path d="M195.3 115L137.7 197L177.3 189Z" fill="#e7694b" stroke="#e7694b"></path><path d="M177.3 189L137.7 197L236.3 289Z" fill="#874874" stroke="#874874"></path><path d="M208.3 489L237.3 540L334 462Z" fill="#874874" stroke="#874874"></path><path d="M708.7 0L666 0L619 94Z" fill="#e7694b" stroke="#e7694b"></path><path d="M859.3 149L773.7 124L746.7 176Z" fill="#a04a74" stroke="#a04a74"></path><path d="M746.7 176L773.7 124L619 94Z" fill="#b74d6f" stroke="#b74d6f"></path><path d="M354 0L234.3 0L320 122Z" fill="#28303f" stroke="#28303f"></path><path d="M195.3 115L90.7 72L137.7 197Z" fill="#6f4670" stroke="#6f4670"></path><path d="M137.7 197L96.7 300L236.3 289Z" fill="#433d5d" stroke="#433d5d"></path><path d="M138.7 354L92.7 410L208.3 489Z" fill="#cb5366" stroke="#cb5366"></path><path d="M208.3 489L104.7 540L237.3 540Z" fill="#574268" stroke="#574268"></path><path d="M773.7 124L708.7 0L619 94Z" fill="#b74d6f" stroke="#b74d6f"></path><path d="M830.3 540L832.3 389L730.7 456Z" fill="#574268" stroke="#574268"></path><path d="M730.7 456L832.3 389L766.7 346Z" fill="#e7694b" stroke="#e7694b"></path><path d="M766.7 346L872.3 285L779.7 275Z" fill="#cb5366" stroke="#cb5366"></path><path d="M779.7 275L859.3 149L746.7 176Z" fill="#e7694b" stroke="#e7694b"></path><path d="M96.7 300L92.7 410L138.7 354Z" fill="#db5c5a" stroke="#db5c5a"></path><path d="M627 540L752.7 540L670 472Z" fill="#db5c5a" stroke="#db5c5a"></path><path d="M832.3 389L872.3 285L766.7 346Z" fill="#e7694b" stroke="#e7694b"></path><path d="M773.7 124L822.3 0L708.7 0Z" fill="#db5c5a" stroke="#db5c5a"></path><path d="M872.3 285L859.3 149L779.7 275Z" fill="#a04a74" stroke="#a04a74"></path><path d="M99.7 0L90.7 72L195.3 115Z" fill="#e7694b" stroke="#e7694b"></path><path d="M0 140L0 307L96.7 300Z" fill="#33374f" stroke="#33374f"></path><path d="M96.7 300L0 386L92.7 410Z" fill="#b74d6f" stroke="#b74d6f"></path><path d="M960 118L859.3 100L859.3 149Z" fill="#574268" stroke="#574268"></path><path d="M859.3 149L859.3 100L773.7 124Z" fill="#33374f" stroke="#33374f"></path><path d="M92.7 410L104.7 540L208.3 489Z" fill="#33374f" stroke="#33374f"></path><path d="M752.7 540L830.3 540L730.7 456Z" fill="#874874" stroke="#874874"></path><path d="M832.3 389L891.3 419L872.3 285Z" fill="#574268" stroke="#574268"></path><path d="M830.3 540L891.3 419L832.3 389Z" fill="#874874" stroke="#874874"></path><path d="M872.3 285L960 183L859.3 149Z" fill="#28303f" stroke="#28303f"></path><path d="M234.3 0L99.7 0L195.3 115Z" fill="#db5c5a" stroke="#db5c5a"></path><path d="M859.3 100L822.3 0L773.7 124Z" fill="#b74d6f" stroke="#b74d6f"></path><path d="M0 140L96.7 300L137.7 197Z" fill="#874874" stroke="#874874"></path><path d="M92.7 410L0 482L104.7 540Z" fill="#28303f" stroke="#28303f"></path><path d="M0 140L137.7 197L90.7 72Z" fill="#b74d6f" stroke="#b74d6f"></path><path d="M0 307L0 386L96.7 300Z" fill="#db5c5a" stroke="#db5c5a"></path><path d="M0 113L0 140L90.7 72Z" fill="#b74d6f" stroke="#b74d6f"></path><path d="M0 0L0 113L90.7 72Z" fill="#574268" stroke="#574268"></path><path d="M960 327L872.3 285L891.3 419Z" fill="#574268" stroke="#574268"></path><path d="M960 327L960 304L872.3 285Z" fill="#cb5366" stroke="#cb5366"></path><path d="M859.3 100L960 0L822.3 0Z" fill="#db5c5a" stroke="#db5c5a"></path><path d="M960 475L960 327L891.3 419Z" fill="#33374f" stroke="#33374f"></path><path d="M0 386L0 482L92.7 410Z" fill="#cb5366" stroke="#cb5366"></path><path d="M960 304L960 183L872.3 285Z" fill="#433d5d" stroke="#433d5d"></path><path d="M960 183L960 118L859.3 149Z" fill="#28303f" stroke="#28303f"></path><path d="M0 482L0 540L104.7 540Z" fill="#33374f" stroke="#33374f"></path><path d="M830.3 540L960 475L891.3 419Z" fill="#a04a74" stroke="#a04a74"></path><path d="M99.7 0L0 0L90.7 72Z" fill="#a04a74" stroke="#a04a74"></path><path d="M830.3 540L960 540L960 475Z" fill="#433d5d" stroke="#433d5d"></path><path d="M960 118L960 0L859.3 100Z" fill="#b74d6f" stroke="#b74d6f"></path></g></svg>