<svg id="visual" viewBox="0 0 900 600" width="900" height="600" xmlns="http://www.w3.org/2000/svg" xmlns:xlink="http://www.w3.org/1999/xlink" version="1.1"><g stroke-width="1" stroke-linejoin="bevel"><path d="M445.1 278L456.9 266L401.1 265Z" fill="#fcb5a2" stroke="#fcb5a2"></path><path d="M395.1 132L370.3 262L401.1 265Z" fill="#ffe1d9" stroke="#ffe1d9"></path><path d="M417.1 388L517.9 355L445.1 278Z" fill="#f9a690" stroke="#f9a690"></path><path d="M456.9 266L490.9 164L401.1 265Z" fill="#ffe1d9" stroke="#ffe1d9"></path><path d="M445.1 278L523.9 314L456.9 266Z" fill="#fec4b4" stroke="#fec4b4"></path><path d="M456.9 266L555.7 208L490.9 164Z" fill="#f1886d" stroke="#f1886d"></path><path d="M517.9 355L523.9 314L445.1 278Z" fill="#f6977e" stroke="#f6977e"></path><path d="M490.9 164L395.1 132L401.1 265Z" fill="#ffe1d9" stroke="#ffe1d9"></path><path d="M523.9 314L555.7 208L456.9 266Z" fill="#ffd3c6" stroke="#ffd3c6"></path><path d="M417.1 388L445.1 278L401.1 265Z" fill="#fec4b4" stroke="#fec4b4"></path><path d="M615.5 251L579.7 183L555.7 208Z" fill="#f6977e" stroke="#f6977e"></path><path d="M370.3 262L417.1 388L401.1 265Z" fill="#fff0ec" stroke="#fff0ec"></path><path d="M490.9 164L425.1 93L395.1 132Z" fill="#ffd3c6" stroke="#ffd3c6"></path><path d="M496.9 46L425.1 93L490.9 164Z" fill="#f1886d" stroke="#f1886d"></path><path d="M292.3 111L286.3 182L395.1 132Z" fill="#f1886d" stroke="#f1886d"></path><path d="M395.1 132L286.3 182L370.3 262Z" fill="#ffd3c6" stroke="#ffd3c6"></path><path d="M370.3 262L289.3 346L417.1 388Z" fill="#ffffff" stroke="#ffffff"></path><path d="M615.5 251L555.7 208L523.9 314Z" fill="#e7694b" stroke="#e7694b"></path><path d="M555.7 208L579.7 183L490.9 164Z" fill="#f1886d" stroke="#f1886d"></path><path d="M223.5 224L289.3 346L370.3 262Z" fill="#ffd3c6" stroke="#ffd3c6"></path><path d="M614.5 371L615.5 251L523.9 314Z" fill="#f1886d" stroke="#f1886d"></path><path d="M422.1 503L504.9 422L417.1 388Z" fill="#e7694b" stroke="#e7694b"></path><path d="M417.1 388L504.9 422L517.9 355Z" fill="#fec4b4" stroke="#fec4b4"></path><path d="M669.5 333L625.7 250L615.5 251Z" fill="#e7694b" stroke="#e7694b"></path><path d="M331.3 0L292.3 111L395.1 132Z" fill="#e7694b" stroke="#e7694b"></path><path d="M582.7 384L523.9 314L517.9 355Z" fill="#f6977e" stroke="#f6977e"></path><path d="M615.5 251L625.7 250L579.7 183Z" fill="#fff0ec" stroke="#fff0ec"></path><path d="M213.6 344L275.3 373L289.3 346Z" fill="#f1886d" stroke="#f1886d"></path><path d="M289.3 346L287.5 428L417.1 388Z" fill="#fcb5a2" stroke="#fcb5a2"></path><path d="M504.9 422L582.7 384L517.9 355Z" fill="#f9a690" stroke="#f9a690"></path><path d="M220.5 201L223.5 224L286.3 182Z" fill="#fcb5a2" stroke="#fcb5a2"></path><path d="M286.3 182L223.5 224L370.3 262Z" fill="#e7694b" stroke="#e7694b"></path><path d="M205.6 123L220.5 201L286.3 182Z" fill="#ffe1d9" stroke="#ffe1d9"></path><path d="M596.7 85L490.9 164L579.7 183Z" fill="#fcb5a2" stroke="#fcb5a2"></path><path d="M596.7 85L496.9 46L490.9 164Z" fill="#ffe1d9" stroke="#ffe1d9"></path><path d="M425.1 93L331.3 0L395.1 132Z" fill="#fec4b4" stroke="#fec4b4"></path><path d="M607.5 480L614.5 371L582.7 384Z" fill="#ec795c" stroke="#ec795c"></path><path d="M582.7 384L614.5 371L523.9 314Z" fill="#e7694b" stroke="#e7694b"></path><path d="M584.7 520L553.7 437L504.9 422Z" fill="#f1886d" stroke="#f1886d"></path><path d="M504.9 422L553.7 437L582.7 384Z" fill="#fcb5a2" stroke="#fcb5a2"></path><path d="M216.6 469L287.5 428L275.3 373Z" fill="#fcb5a2" stroke="#fcb5a2"></path><path d="M275.3 373L287.5 428L289.3 346Z" fill="#f6977e" stroke="#f6977e"></path><path d="M191.5 333L213.6 344L223.5 224Z" fill="#ec795c" stroke="#ec795c"></path><path d="M223.5 224L213.6 344L289.3 346Z" fill="#fff0ec" stroke="#fff0ec"></path><path d="M608.5 85L596.7 85L579.7 183Z" fill="#ec795c" stroke="#ec795c"></path><path d="M294.5 469L319.3 465L287.5 428Z" fill="#ffffff" stroke="#ffffff"></path><path d="M287.5 428L319.3 465L417.1 388Z" fill="#ffffff" stroke="#ffffff"></path><path d="M683.5 188L608.5 85L579.7 183Z" fill="#f1886d" stroke="#f1886d"></path><path d="M520.7 0L499.9 0L496.9 46Z" fill="#fec4b4" stroke="#fec4b4"></path><path d="M499.9 0L416.1 0L496.9 46Z" fill="#fff0ec" stroke="#fff0ec"></path><path d="M496.9 46L416.1 0L425.1 93Z" fill="#e7694b" stroke="#e7694b"></path><path d="M121.6 272L191.5 333L223.5 224Z" fill="#f9a690" stroke="#f9a690"></path><path d="M216.6 469L294.5 469L287.5 428Z" fill="#ffd3c6" stroke="#ffd3c6"></path><path d="M319.3 465L422.1 503L417.1 388Z" fill="#e7694b" stroke="#e7694b"></path><path d="M743.4 362L669.5 333L614.5 371Z" fill="#fff0ec" stroke="#fff0ec"></path><path d="M614.5 371L669.5 333L615.5 251Z" fill="#f6977e" stroke="#f6977e"></path><path d="M625.7 250L683.5 188L579.7 183Z" fill="#fff0ec" stroke="#fff0ec"></path><path d="M216.6 469L275.3 373L213.6 344Z" fill="#f1886d" stroke="#f1886d"></path><path d="M319.3 465L380.1 547L422.1 503Z" fill="#ffd3c6" stroke="#ffd3c6"></path><path d="M292.3 111L205.6 123L286.3 182Z" fill="#fcb5a2" stroke="#fcb5a2"></path><path d="M220.5 201L121.6 272L223.5 224Z" fill="#ec795c" stroke="#ec795c"></path><path d="M197.5 88L205.6 123L292.3 111Z" fill="#e7694b" stroke="#e7694b"></path><path d="M520.7 0L496.9 46L596.7 85Z" fill="#fff0ec" stroke="#fff0ec"></path><path d="M742.4 315L683.5 188L625.7 250Z" fill="#f1886d" stroke="#f1886d"></path><path d="M608.5 85L520.7 0L596.7 85Z" fill="#f6977e" stroke="#f6977e"></path><path d="M416.1 0L331.3 0L425.1 93Z" fill="#ec795c" stroke="#ec795c"></path><path d="M242.5 0L197.5 88L292.3 111Z" fill="#f6977e" stroke="#f6977e"></path><path d="M98.8 98L121.6 272L220.5 201Z" fill="#ffe1d9" stroke="#ffe1d9"></path><path d="M584.7 520L607.5 480L553.7 437Z" fill="#ec795c" stroke="#ec795c"></path><path d="M553.7 437L607.5 480L582.7 384Z" fill="#e7694b" stroke="#e7694b"></path><path d="M289.3 539L380.1 547L319.3 465Z" fill="#fcb5a2" stroke="#fcb5a2"></path><path d="M448.9 564L584.7 520L504.9 422Z" fill="#f9a690" stroke="#f9a690"></path><path d="M123.8 445L216.6 469L213.6 344Z" fill="#fec4b4" stroke="#fec4b4"></path><path d="M294.5 469L289.3 539L319.3 465Z" fill="#ec795c" stroke="#ec795c"></path><path d="M98.8 98L220.5 201L205.6 123Z" fill="#f6977e" stroke="#f6977e"></path><path d="M191.5 333L123.8 445L213.6 344Z" fill="#ffe1d9" stroke="#ffe1d9"></path><path d="M448.9 564L504.9 422L422.1 503Z" fill="#e7694b" stroke="#e7694b"></path><path d="M183.6 0L171.6 75L197.5 88Z" fill="#fcb5a2" stroke="#fcb5a2"></path><path d="M197.5 88L171.6 75L205.6 123Z" fill="#fff0ec" stroke="#fff0ec"></path><path d="M331.3 0L242.5 0L292.3 111Z" fill="#ec795c" stroke="#ec795c"></path><path d="M380.1 547L448.9 564L422.1 503Z" fill="#fcb5a2" stroke="#fcb5a2"></path><path d="M121.6 272L120.6 322L191.5 333Z" fill="#ec795c" stroke="#ec795c"></path><path d="M743.4 362L742.4 315L669.5 333Z" fill="#f6977e" stroke="#f6977e"></path><path d="M669.5 333L742.4 315L625.7 250Z" fill="#ffe1d9" stroke="#ffe1d9"></path><path d="M743.4 362L614.5 371L702.4 499Z" fill="#fec4b4" stroke="#fec4b4"></path><path d="M259.5 540L289.3 539L294.5 469Z" fill="#ec795c" stroke="#ec795c"></path><path d="M380.1 547L388.1 600L448.9 564Z" fill="#ec795c" stroke="#ec795c"></path><path d="M683.5 188L720.4 103L608.5 85Z" fill="#ffe1d9" stroke="#ffe1d9"></path><path d="M608.5 85L695.5 0L520.7 0Z" fill="#ffffff" stroke="#ffffff"></path><path d="M784.4 141L720.4 103L683.5 188Z" fill="#f6977e" stroke="#f6977e"></path><path d="M702.4 499L614.5 371L607.5 480Z" fill="#f6977e" stroke="#f6977e"></path><path d="M247.5 600L259.5 540L196.6 600Z" fill="#ffe1d9" stroke="#ffe1d9"></path><path d="M216.6 469L259.5 540L294.5 469Z" fill="#f9a690" stroke="#f9a690"></path><path d="M379.3 600L388.1 600L380.1 547Z" fill="#ffe1d9" stroke="#ffe1d9"></path><path d="M869.2 293L775.2 238L742.4 315Z" fill="#ec795c" stroke="#ec795c"></path><path d="M742.4 315L775.2 238L683.5 188Z" fill="#f9a690" stroke="#f9a690"></path><path d="M242.5 0L183.6 0L197.5 88Z" fill="#ffd3c6" stroke="#ffd3c6"></path><path d="M171.6 75L98.8 98L205.6 123Z" fill="#fcb5a2" stroke="#fcb5a2"></path><path d="M379.3 600L380.1 547L289.3 539Z" fill="#fcb5a2" stroke="#fcb5a2"></path><path d="M448.9 564L519.9 600L584.7 520Z" fill="#f1886d" stroke="#f1886d"></path><path d="M247.5 600L379.3 600L289.3 539Z" fill="#f6977e" stroke="#f6977e"></path><path d="M869.2 293L781.4 220L775.2 238Z" fill="#ffffff" stroke="#ffffff"></path><path d="M775.2 238L781.4 220L683.5 188Z" fill="#e7694b" stroke="#e7694b"></path><path d="M388.1 600L519.9 600L448.9 564Z" fill="#ffe1d9" stroke="#ffe1d9"></path><path d="M692.5 530L702.4 499L607.5 480Z" fill="#f6977e" stroke="#f6977e"></path><path d="M120.6 322L123.8 445L191.5 333Z" fill="#fcb5a2" stroke="#fcb5a2"></path><path d="M519.9 600L529.7 600L584.7 520Z" fill="#fec4b4" stroke="#fec4b4"></path><path d="M90.8 58L98.8 98L171.6 75Z" fill="#ffffff" stroke="#ffffff"></path><path d="M121.6 272L52.8 263L120.6 322Z" fill="#fff0ec" stroke="#fff0ec"></path><path d="M120.6 322L27.8 335L123.8 445Z" fill="#fcb5a2" stroke="#fcb5a2"></path><path d="M782.4 0L695.5 0L720.4 103Z" fill="#f1886d" stroke="#f1886d"></path><path d="M720.4 103L695.5 0L608.5 85Z" fill="#fcb5a2" stroke="#fcb5a2"></path><path d="M692.5 530L607.5 480L584.7 520Z" fill="#ffe1d9" stroke="#ffe1d9"></path><path d="M781.4 220L784.4 141L683.5 188Z" fill="#fcb5a2" stroke="#fcb5a2"></path><path d="M36.8 181L52.8 263L121.6 272Z" fill="#ec795c" stroke="#ec795c"></path><path d="M670.5 600L692.5 530L584.7 520Z" fill="#f6977e" stroke="#f6977e"></path><path d="M183.6 0L90.8 58L171.6 75Z" fill="#ec795c" stroke="#ec795c"></path><path d="M98.8 98L36.8 181L121.6 272Z" fill="#e7694b" stroke="#e7694b"></path><path d="M132.8 518L259.5 540L216.6 469Z" fill="#ffe1d9" stroke="#ffe1d9"></path><path d="M259.5 540L247.5 600L289.3 539Z" fill="#ec795c" stroke="#ec795c"></path><path d="M0 132L36.8 181L98.8 98Z" fill="#f1886d" stroke="#f1886d"></path><path d="M121.6 519L132.8 518L123.8 445Z" fill="#f1886d" stroke="#f1886d"></path><path d="M123.8 445L132.8 518L216.6 469Z" fill="#fff0ec" stroke="#fff0ec"></path><path d="M805.2 507L743.4 362L702.4 499Z" fill="#ffffff" stroke="#ffffff"></path><path d="M805.2 507L811.2 369L743.4 362Z" fill="#ec795c" stroke="#ec795c"></path><path d="M743.4 362L811.2 369L742.4 315Z" fill="#f9a690" stroke="#f9a690"></path><path d="M816.2 130L802.2 103L784.4 141Z" fill="#fff0ec" stroke="#fff0ec"></path><path d="M816.2 130L784.4 141L781.4 220Z" fill="#ec795c" stroke="#ec795c"></path><path d="M784.4 141L802.2 103L720.4 103Z" fill="#f6977e" stroke="#f6977e"></path><path d="M900 171L816.2 130L781.4 220Z" fill="#fcb5a2" stroke="#fcb5a2"></path><path d="M0 424L121.6 519L123.8 445Z" fill="#e7694b" stroke="#e7694b"></path><path d="M132.8 518L196.6 600L259.5 540Z" fill="#ec795c" stroke="#ec795c"></path><path d="M0 293L27.8 335L52.8 263Z" fill="#f6977e" stroke="#f6977e"></path><path d="M52.8 263L27.8 335L120.6 322Z" fill="#ffffff" stroke="#ffffff"></path><path d="M116.8 600L196.6 600L132.8 518Z" fill="#ffffff" stroke="#ffffff"></path><path d="M183.6 0L91.8 0L90.8 58Z" fill="#f1886d" stroke="#f1886d"></path><path d="M0 132L0 214L36.8 181Z" fill="#e7694b" stroke="#e7694b"></path><path d="M529.7 600L670.5 600L584.7 520Z" fill="#ec795c" stroke="#ec795c"></path><path d="M692.5 530L718.4 568L702.4 499Z" fill="#ffffff" stroke="#ffffff"></path><path d="M670.5 600L718.4 568L692.5 530Z" fill="#fec4b4" stroke="#fec4b4"></path><path d="M0 132L98.8 98L0 47Z" fill="#ffe1d9" stroke="#ffe1d9"></path><path d="M36.8 181L0 214L52.8 263Z" fill="#ec795c" stroke="#ec795c"></path><path d="M0 214L0 293L52.8 263Z" fill="#f1886d" stroke="#f1886d"></path><path d="M27.8 335L0 416L123.8 445Z" fill="#fcb5a2" stroke="#fcb5a2"></path><path d="M808.2 0L782.4 0L802.2 103Z" fill="#ec795c" stroke="#ec795c"></path><path d="M802.2 103L782.4 0L720.4 103Z" fill="#e7694b" stroke="#e7694b"></path><path d="M900 344L869.2 293L811.2 369Z" fill="#ffe1d9" stroke="#ffe1d9"></path><path d="M811.2 369L869.2 293L742.4 315Z" fill="#ffd3c6" stroke="#ffd3c6"></path><path d="M900 0L808.2 0L802.2 103Z" fill="#ec795c" stroke="#ec795c"></path><path d="M0 47L98.8 98L90.8 58Z" fill="#f6977e" stroke="#f6977e"></path><path d="M900 123L802.2 103L816.2 130Z" fill="#f1886d" stroke="#f1886d"></path><path d="M718.4 568L805.2 507L702.4 499Z" fill="#f6977e" stroke="#f6977e"></path><path d="M670.5 600L728.4 600L718.4 568Z" fill="#ffd3c6" stroke="#ffd3c6"></path><path d="M718.4 568L782.2 600L805.2 507Z" fill="#f6977e" stroke="#f6977e"></path><path d="M0 293L0 416L27.8 335Z" fill="#fec4b4" stroke="#fec4b4"></path><path d="M121.6 519L116.8 600L132.8 518Z" fill="#ec795c" stroke="#ec795c"></path><path d="M0 416L0 424L123.8 445Z" fill="#f6977e" stroke="#f6977e"></path><path d="M0 547L116.8 600L121.6 519Z" fill="#ffffff" stroke="#ffffff"></path><path d="M900 344L900 264L869.2 293Z" fill="#ffe1d9" stroke="#ffe1d9"></path><path d="M869.2 293L900 264L781.4 220Z" fill="#ec795c" stroke="#ec795c"></path><path d="M91.8 0L0 47L90.8 58Z" fill="#ffe1d9" stroke="#ffe1d9"></path><path d="M900 264L900 171L781.4 220Z" fill="#ffd3c6" stroke="#ffd3c6"></path><path d="M900 470L900 344L811.2 369Z" fill="#ffe1d9" stroke="#ffe1d9"></path><path d="M900 171L900 141L816.2 130Z" fill="#fff0ec" stroke="#fff0ec"></path><path d="M900 600L855.2 484L805.2 507Z" fill="#ffe1d9" stroke="#ffe1d9"></path><path d="M805.2 507L855.2 484L811.2 369Z" fill="#f9a690" stroke="#f9a690"></path><path d="M900 141L900 123L816.2 130Z" fill="#fcb5a2" stroke="#fcb5a2"></path><path d="M728.4 600L782.2 600L718.4 568Z" fill="#ffd3c6" stroke="#ffd3c6"></path><path d="M91.8 0L0 0L0 47Z" fill="#ffd3c6" stroke="#ffd3c6"></path><path d="M900 471L900 470L855.2 484Z" fill="#ec795c" stroke="#ec795c"></path><path d="M855.2 484L900 470L811.2 369Z" fill="#ffd3c6" stroke="#ffd3c6"></path><path d="M900 600L900 471L855.2 484Z" fill="#ffffff" stroke="#ffffff"></path><path d="M0 424L0 547L121.6 519Z" fill="#e7694b" stroke="#e7694b"></path><path d="M900 123L900 0L802.2 103Z" fill="#fff0ec" stroke="#fff0ec"></path><path d="M0 547L0 600L116.8 600Z" fill="#fcb5a2" stroke="#fcb5a2"></path><path d="M782.2 600L900 600L805.2 507Z" fill="#ec795c" stroke="#ec795c"></path></g></svg>