<svg id="visual" viewBox="0 0 960 540" width="960" height="540" xmlns="http://www.w3.org/2000/svg" xmlns:xlink="http://www.w3.org/1999/xlink" version="1.1"><path d="M0 17L40 49.5C80 82 160 147 240 164.2C320 181.3 400 150.7 480 139.8C560 129 640 138 720 150.5C800 163 880 179 920 187L960 195L960 0L920 0C880 0 800 0 720 0C640 0 560 0 480 0C400 0 320 0 240 0C160 0 80 0 40 0L0 0Z" fill="#f4997e"></path><path d="M0 104L40 136.3C80 168.7 160 233.3 240 250.3C320 267.3 400 236.7 480 221.3C560 206 640 206 720 222.2C800 238.3 880 270.7 920 286.8L960 303L960 193L920 185C880 177 800 161 720 148.5C640 136 560 127 480 137.8C400 148.7 320 179.3 240 162.2C160 145 80 80 40 47.5L0 15Z" fill="#ef8669"></path><path d="M0 325L40 325C80 325 160 325 240 335.8C320 346.7 400 368.3 480 385.5C560 402.7 640 415.3 720 404.5C800 393.7 880 359.3 920 342.2L960 325L960 301L920 284.8C880 268.7 800 236.3 720 220.2C640 204 560 204 480 219.3C400 234.7 320 265.3 240 248.3C160 231.3 80 166.7 40 134.3L0 102Z" fill="#ea7355"></path><path d="M0 347L40 350.5C80 354 160 361 240 374.5C320 388 400 408 480 427C560 446 640 464 720 457.7C800 451.3 880 420.7 920 405.3L960 390L960 323L920 340.2C880 357.3 800 391.7 720 402.5C640 413.3 560 400.7 480 383.5C400 366.3 320 344.7 240 333.8C160 323 80 323 40 323L0 323Z" fill="#db6347"></path><path d="M0 390L40 389C80 388 160 386 240 395.8C320 405.7 400 427.3 480 446.3C560 465.3 640 481.7 720 476.3C800 471 880 444 920 430.5L960 417L960 388L920 403.3C880 418.7 800 449.3 720 455.7C640 462 560 444 480 425C400 406 320 386 240 372.5C160 359 80 352 40 348.5L0 345Z" fill="#c4563e"></path><path d="M0 541L40 541C80 541 160 541 240 541C320 541 400 541 480 541C560 541 640 541 720 541C800 541 880 541 920 541L960 541L960 415L920 428.5C880 442 800 469 720 474.3C640 479.7 560 463.3 480 444.3C400 425.3 320 403.7 240 393.8C160 384 80 386 40 387L0 388Z" fill="#ad4a35"></path></svg>