<svg id="visual" viewBox="0 0 960 540" width="960" height="540" xmlns="http://www.w3.org/2000/svg" xmlns:xlink="http://www.w3.org/1999/xlink" version="1.1"><g stroke-width="1" stroke-linejoin="bevel"><path d="M468.4 309.6L554.6 363.7L545.6 277.6Z" fill="#7d3d38" stroke="#7d3d38"></path><path d="M554.6 363.7L610.9 267.6L545.6 277.6Z" fill="#d25f48" stroke="#d25f48"></path><path d="M468.4 309.6L429.4 390.7L554.6 363.7Z" fill="#a74d41" stroke="#a74d41"></path><path d="M554.6 363.7L623.9 270.4L610.9 267.6Z" fill="#402726" stroke="#402726"></path><path d="M555.6 198.3L534.6 204.4L545.6 277.6Z" fill="#d25f48" stroke="#d25f48"></path><path d="M545.6 277.6L478.4 200.4L468.4 309.6Z" fill="#92453d" stroke="#92453d"></path><path d="M555.6 198.3L545.6 277.6L610.9 267.6Z" fill="#a74d41" stroke="#a74d41"></path><path d="M553.6 454.9L614.9 403.7L554.6 363.7Z" fill="#1a1818" stroke="#1a1818"></path><path d="M554.6 363.7L614.9 403.7L623.9 270.4Z" fill="#bc5645" stroke="#bc5645"></path><path d="M534.6 204.4L478.4 200.4L545.6 277.6Z" fill="#683533" stroke="#683533"></path><path d="M468.4 309.6L383.1 333.6L429.4 390.7Z" fill="#92453d" stroke="#92453d"></path><path d="M592.9 160.3L555.6 198.3L610.9 267.6Z" fill="#402726" stroke="#402726"></path><path d="M534.6 204.4L499.6 93.1L478.4 200.4Z" fill="#2d1f1f" stroke="#2d1f1f"></path><path d="M451.4 460.9L553.6 454.9L554.6 363.7Z" fill="#1a1818" stroke="#1a1818"></path><path d="M338.1 243.4L383.1 333.6L468.4 309.6Z" fill="#683533" stroke="#683533"></path><path d="M379.1 450.9L451.4 460.9L429.4 390.7Z" fill="#bc5645" stroke="#bc5645"></path><path d="M429.4 390.7L451.4 460.9L554.6 363.7Z" fill="#402726" stroke="#402726"></path><path d="M541.6 540L579.9 475.9L553.6 454.9Z" fill="#92453d" stroke="#92453d"></path><path d="M553.6 454.9L579.9 475.9L614.9 403.7Z" fill="#542e2d" stroke="#542e2d"></path><path d="M383.1 333.6L379.1 413.7L429.4 390.7Z" fill="#e7694b" stroke="#e7694b"></path><path d="M748.5 447.9L684.2 371.7L712.2 500.9Z" fill="#bc5645" stroke="#bc5645"></path><path d="M614.9 403.7L684.2 371.7L623.9 270.4Z" fill="#bc5645" stroke="#bc5645"></path><path d="M684.2 371.7L696.2 352.6L623.9 270.4Z" fill="#92453d" stroke="#92453d"></path><path d="M623.9 270.4L592.9 160.3L610.9 267.6Z" fill="#a74d41" stroke="#a74d41"></path><path d="M555.6 198.3L499.6 93.1L534.6 204.4Z" fill="#683533" stroke="#683533"></path><path d="M694.2 140.3L592.9 160.3L623.9 270.4Z" fill="#402726" stroke="#402726"></path><path d="M379.1 413.7L379.1 450.9L429.4 390.7Z" fill="#d25f48" stroke="#d25f48"></path><path d="M420.4 141.3L338.1 243.4L478.4 200.4Z" fill="#bc5645" stroke="#bc5645"></path><path d="M478.4 200.4L338.1 243.4L468.4 309.6Z" fill="#d25f48" stroke="#d25f48"></path><path d="M383.1 333.6L300.8 340.7L379.1 413.7Z" fill="#a74d41" stroke="#a74d41"></path><path d="M379.1 413.7L247.8 455.9L379.1 450.9Z" fill="#d25f48" stroke="#d25f48"></path><path d="M499.6 93.1L420.4 141.3L478.4 200.4Z" fill="#a74d41" stroke="#a74d41"></path><path d="M696.2 352.6L717.2 258.4L623.9 270.4Z" fill="#e7694b" stroke="#e7694b"></path><path d="M438.4 540L541.6 540L451.4 460.9Z" fill="#1a1818" stroke="#1a1818"></path><path d="M451.4 460.9L541.6 540L553.6 454.9Z" fill="#542e2d" stroke="#542e2d"></path><path d="M712.2 500.9L684.2 371.7L614.9 403.7Z" fill="#bc5645" stroke="#bc5645"></path><path d="M293.8 305.6L300.8 340.7L383.1 333.6Z" fill="#1a1818" stroke="#1a1818"></path><path d="M338.1 243.4L293.8 305.6L383.1 333.6Z" fill="#a74d41" stroke="#a74d41"></path><path d="M322.1 540L438.4 540L379.1 450.9Z" fill="#7d3d38" stroke="#7d3d38"></path><path d="M379.1 450.9L438.4 540L451.4 460.9Z" fill="#d25f48" stroke="#d25f48"></path><path d="M592.9 160.3L499.6 93.1L555.6 198.3Z" fill="#402726" stroke="#402726"></path><path d="M541.6 540L607.9 540L579.9 475.9Z" fill="#e7694b" stroke="#e7694b"></path><path d="M684.2 371.7L748.5 447.9L696.2 352.6Z" fill="#a74d41" stroke="#a74d41"></path><path d="M797.5 351.6L742.5 248.4L717.2 258.4Z" fill="#542e2d" stroke="#542e2d"></path><path d="M717.2 258.4L694.2 140.3L623.9 270.4Z" fill="#d25f48" stroke="#d25f48"></path><path d="M592.9 160.3L609.9 102.1L499.6 93.1Z" fill="#92453d" stroke="#92453d"></path><path d="M694.2 140.3L609.9 102.1L592.9 160.3Z" fill="#e7694b" stroke="#e7694b"></path><path d="M742.5 248.4L694.2 140.3L717.2 258.4Z" fill="#2d1f1f" stroke="#2d1f1f"></path><path d="M712.2 500.9L614.9 403.7L579.9 475.9Z" fill="#542e2d" stroke="#542e2d"></path><path d="M696.2 352.6L797.5 351.6L717.2 258.4Z" fill="#d25f48" stroke="#d25f48"></path><path d="M607.9 540L712.2 500.9L579.9 475.9Z" fill="#542e2d" stroke="#542e2d"></path><path d="M400.4 55.1L348.1 110.3L420.4 141.3Z" fill="#2d1f1f" stroke="#2d1f1f"></path><path d="M420.4 141.3L348.1 110.3L338.1 243.4Z" fill="#402726" stroke="#402726"></path><path d="M338.1 243.4L236.8 208.4L293.8 305.6Z" fill="#e7694b" stroke="#e7694b"></path><path d="M748.5 447.9L797.5 351.6L696.2 352.6Z" fill="#a74d41" stroke="#a74d41"></path><path d="M742.5 248.4L775.5 131.3L694.2 140.3Z" fill="#d25f48" stroke="#d25f48"></path><path d="M348.1 110.3L274.8 185.3L338.1 243.4Z" fill="#e7694b" stroke="#e7694b"></path><path d="M247.8 455.9L322.1 540L379.1 450.9Z" fill="#542e2d" stroke="#542e2d"></path><path d="M247.8 455.9L379.1 413.7L300.8 340.7Z" fill="#402726" stroke="#402726"></path><path d="M247.8 455.9L300.8 340.7L141.5 392.7Z" fill="#a74d41" stroke="#a74d41"></path><path d="M499.6 93.1L400.4 55.1L420.4 141.3Z" fill="#7d3d38" stroke="#7d3d38"></path><path d="M348.1 110.3L220.8 66.1L274.8 185.3Z" fill="#542e2d" stroke="#542e2d"></path><path d="M416.4 0L400.4 55.1L499.6 93.1Z" fill="#92453d" stroke="#92453d"></path><path d="M203.5 264.6L300.8 340.7L293.8 305.6Z" fill="#e7694b" stroke="#e7694b"></path><path d="M400.4 55.1L353.1 71.1L348.1 110.3Z" fill="#e7694b" stroke="#e7694b"></path><path d="M607.9 540L732.2 540L712.2 500.9Z" fill="#402726" stroke="#402726"></path><path d="M712.2 500.9L760.5 540L748.5 447.9Z" fill="#2d1f1f" stroke="#2d1f1f"></path><path d="M748.5 447.9L827.5 389.7L797.5 351.6Z" fill="#7d3d38" stroke="#7d3d38"></path><path d="M216.5 192.3L236.8 208.4L274.8 185.3Z" fill="#a74d41" stroke="#a74d41"></path><path d="M274.8 185.3L236.8 208.4L338.1 243.4Z" fill="#402726" stroke="#402726"></path><path d="M694.2 140.3L659.2 47.1L609.9 102.1Z" fill="#7d3d38" stroke="#7d3d38"></path><path d="M609.9 102.1L556.6 0L499.6 93.1Z" fill="#d25f48" stroke="#d25f48"></path><path d="M775.5 131.3L659.2 47.1L694.2 140.3Z" fill="#1a1818" stroke="#1a1818"></path><path d="M829.7 452.9L827.5 389.7L748.5 447.9Z" fill="#542e2d" stroke="#542e2d"></path><path d="M859.7 173.3L775.5 131.3L742.5 248.4Z" fill="#542e2d" stroke="#542e2d"></path><path d="M864.7 214.4L742.5 248.4L797.5 351.6Z" fill="#d25f48" stroke="#d25f48"></path><path d="M236.8 208.4L203.5 264.6L293.8 305.6Z" fill="#92453d" stroke="#92453d"></path><path d="M247.8 455.9L280.8 540L322.1 540Z" fill="#402726" stroke="#402726"></path><path d="M732.2 540L760.5 540L712.2 500.9Z" fill="#402726" stroke="#402726"></path><path d="M581.9 0L556.6 0L609.9 102.1Z" fill="#402726" stroke="#402726"></path><path d="M400.4 55.1L305.1 0L353.1 71.1Z" fill="#92453d" stroke="#92453d"></path><path d="M659.2 47.1L581.9 0L609.9 102.1Z" fill="#e7694b" stroke="#e7694b"></path><path d="M220.8 66.1L216.5 192.3L274.8 185.3Z" fill="#d25f48" stroke="#d25f48"></path><path d="M236.8 208.4L178.5 202.4L203.5 264.6Z" fill="#bc5645" stroke="#bc5645"></path><path d="M760.5 540L829.7 452.9L748.5 447.9Z" fill="#a74d41" stroke="#a74d41"></path><path d="M556.6 0L416.4 0L499.6 93.1Z" fill="#bc5645" stroke="#bc5645"></path><path d="M166.5 57.1L178.5 202.4L216.5 192.3Z" fill="#1a1818" stroke="#1a1818"></path><path d="M829.7 452.9L859.7 361.7L827.5 389.7Z" fill="#92453d" stroke="#92453d"></path><path d="M827.5 389.7L859.7 361.7L797.5 351.6Z" fill="#d25f48" stroke="#d25f48"></path><path d="M220.8 66.1L348.1 110.3L353.1 71.1Z" fill="#7d3d38" stroke="#7d3d38"></path><path d="M216.5 192.3L178.5 202.4L236.8 208.4Z" fill="#d25f48" stroke="#d25f48"></path><path d="M203.5 264.6L141.5 392.7L300.8 340.7Z" fill="#a74d41" stroke="#a74d41"></path><path d="M908.7 264.6L864.7 214.4L797.5 351.6Z" fill="#7d3d38" stroke="#7d3d38"></path><path d="M751.5 0L696.2 0L659.2 47.1Z" fill="#7d3d38" stroke="#7d3d38"></path><path d="M659.2 47.1L696.2 0L581.9 0Z" fill="#e7694b" stroke="#e7694b"></path><path d="M751.5 0L659.2 47.1L775.5 131.3Z" fill="#92453d" stroke="#92453d"></path><path d="M864.7 214.4L859.7 173.3L742.5 248.4Z" fill="#2d1f1f" stroke="#2d1f1f"></path><path d="M114.3 327.6L141.5 392.7L203.5 264.6Z" fill="#bc5645" stroke="#bc5645"></path><path d="M247.8 455.9L189.5 540L280.8 540Z" fill="#542e2d" stroke="#542e2d"></path><path d="M416.4 0L305.1 0L400.4 55.1Z" fill="#1a1818" stroke="#1a1818"></path><path d="M859.7 361.7L908.7 264.6L797.5 351.6Z" fill="#542e2d" stroke="#542e2d"></path><path d="M864.7 214.4L960 124.3L859.7 173.3Z" fill="#bc5645" stroke="#bc5645"></path><path d="M960 350.6L908.7 264.6L859.7 361.7Z" fill="#542e2d" stroke="#542e2d"></path><path d="M140.5 472.9L189.5 540L247.8 455.9Z" fill="#542e2d" stroke="#542e2d"></path><path d="M305.1 0L220.8 66.1L353.1 71.1Z" fill="#402726" stroke="#402726"></path><path d="M828.5 42.1L751.5 0L775.5 131.3Z" fill="#e7694b" stroke="#e7694b"></path><path d="M115.3 250.4L114.3 327.6L203.5 264.6Z" fill="#683533" stroke="#683533"></path><path d="M141.5 392.7L140.5 472.9L247.8 455.9Z" fill="#2d1f1f" stroke="#2d1f1f"></path><path d="M115.3 250.4L203.5 264.6L178.5 202.4Z" fill="#2d1f1f" stroke="#2d1f1f"></path><path d="M117.3 419.7L140.5 472.9L141.5 392.7Z" fill="#683533" stroke="#683533"></path><path d="M98.3 173.3L115.3 250.4L178.5 202.4Z" fill="#2d1f1f" stroke="#2d1f1f"></path><path d="M114.3 327.6L117.3 419.7L141.5 392.7Z" fill="#542e2d" stroke="#542e2d"></path><path d="M960 124.3L872.7 104.1L859.7 173.3Z" fill="#bc5645" stroke="#bc5645"></path><path d="M859.7 173.3L872.7 104.1L775.5 131.3Z" fill="#d25f48" stroke="#d25f48"></path><path d="M872.7 104.1L828.5 42.1L775.5 131.3Z" fill="#1a1818" stroke="#1a1818"></path><path d="M305.1 0L237.8 0L220.8 66.1Z" fill="#1a1818" stroke="#1a1818"></path><path d="M220.8 66.1L166.5 57.1L216.5 192.3Z" fill="#1a1818" stroke="#1a1818"></path><path d="M760.5 540L896.7 540L829.7 452.9Z" fill="#2d1f1f" stroke="#2d1f1f"></path><path d="M960 372.7L960 350.6L859.7 361.7Z" fill="#542e2d" stroke="#542e2d"></path><path d="M960 372.7L859.7 361.7L960 426.9Z" fill="#1a1818" stroke="#1a1818"></path><path d="M908.7 264.6L960 124.3L864.7 214.4Z" fill="#e7694b" stroke="#e7694b"></path><path d="M237.8 0L166.5 57.1L220.8 66.1Z" fill="#402726" stroke="#402726"></path><path d="M960 426.9L859.7 361.7L829.7 452.9Z" fill="#bc5645" stroke="#bc5645"></path><path d="M960 350.6L960 272.4L908.7 264.6Z" fill="#7d3d38" stroke="#7d3d38"></path><path d="M166.5 57.1L98.3 173.3L178.5 202.4Z" fill="#1a1818" stroke="#1a1818"></path><path d="M0 238.4L0 348.6L114.3 327.6Z" fill="#542e2d" stroke="#542e2d"></path><path d="M0 456.9L69.3 501.9L117.3 419.7Z" fill="#683533" stroke="#683533"></path><path d="M896.7 540L960 426.9L829.7 452.9Z" fill="#2d1f1f" stroke="#2d1f1f"></path><path d="M960 39.1L837.7 0L828.5 42.1Z" fill="#a74d41" stroke="#a74d41"></path><path d="M828.5 42.1L837.7 0L751.5 0Z" fill="#2d1f1f" stroke="#2d1f1f"></path><path d="M960 39.1L828.5 42.1L872.7 104.1Z" fill="#92453d" stroke="#92453d"></path><path d="M960 272.4L960 124.3L908.7 264.6Z" fill="#92453d" stroke="#92453d"></path><path d="M0 348.7L117.3 419.7L114.3 327.6Z" fill="#402726" stroke="#402726"></path><path d="M117.3 419.7L69.3 501.9L140.5 472.9Z" fill="#7d3d38" stroke="#7d3d38"></path><path d="M140.5 472.9L71.3 540L189.5 540Z" fill="#1a1818" stroke="#1a1818"></path><path d="M237.8 0L152.5 0L166.5 57.1Z" fill="#e7694b" stroke="#e7694b"></path><path d="M166.5 57.1L82.3 80.1L98.3 173.3Z" fill="#542e2d" stroke="#542e2d"></path><path d="M896.7 540L960 540L960 426.9Z" fill="#bc5645" stroke="#bc5645"></path><path d="M69.3 501.9L71.3 540L140.5 472.9Z" fill="#2d1f1f" stroke="#2d1f1f"></path><path d="M152.5 0L82.3 80.1L166.5 57.1Z" fill="#92453d" stroke="#92453d"></path><path d="M0 238.4L114.3 327.6L115.3 250.4Z" fill="#542e2d" stroke="#542e2d"></path><path d="M0 238.4L115.3 250.4L98.3 173.3Z" fill="#d25f48" stroke="#d25f48"></path><path d="M69.3 501.9L0 540L71.3 540Z" fill="#e7694b" stroke="#e7694b"></path><path d="M0 348.6L0 348.7L114.3 327.6Z" fill="#d25f48" stroke="#d25f48"></path><path d="M960 124.3L960 39.1L872.7 104.1Z" fill="#e7694b" stroke="#e7694b"></path><path d="M0 159.3L0 238.4L98.3 173.3Z" fill="#402726" stroke="#402726"></path><path d="M0 348.7L0 456.9L117.3 419.7Z" fill="#542e2d" stroke="#542e2d"></path><path d="M0 79.1L0 159.3L82.3 80.1Z" fill="#542e2d" stroke="#542e2d"></path><path d="M82.3 80.1L0 159.3L98.3 173.3Z" fill="#7d3d38" stroke="#7d3d38"></path><path d="M960 39.1L960 0L837.7 0Z" fill="#e7694b" stroke="#e7694b"></path><path d="M152.5 0L64.3 0L82.3 80.1Z" fill="#92453d" stroke="#92453d"></path><path d="M0 456.9L0 540L69.3 501.9Z" fill="#d25f48" stroke="#d25f48"></path><path d="M64.3 0L0 79.1L82.3 80.1Z" fill="#92453d" stroke="#92453d"></path><path d="M64.3 0L0 0L0 79.1Z" fill="#e7694b" stroke="#e7694b"></path></g></svg>